# xmcd
#
# Track frame offsets:
#	150
#	11492
#	24869
#	37346
#	50843
#	63983
#	78489
#	90536
#	104208
#	116767
#	148224
#	166208
#	182712
#	201359
#	216831
#	236573
#	255022
#	274944
#	292729
#	309216
#
# Disc length: 4372
#
# Revision: 1
# Processed by: cddbd v1.5.1PL0 Copyright (c) Steve Scherf et al.
# Submitted via: ExactAudioCopy v0.95a3
# Normalized: r0:TDELIM( - )
#
DISCID=1f111214
DTITLE=Various Artist - The Motown Story
DYEAR=1900
DGENRE=Soul
TTITLE0=The Marvelettes - Please Mr Postman
TTITLE1=The Tempatations - My Girl
TTITLE2=Four tops - I can't help myself
TTITLE3=Jackson 5 - ABC
TTITLE4=Diana Ross - Stop! In the Name of Love
TTITLE5=Marvin Gaye - I heard it through the grapevine
TTITLE6=Martha and Vandelas - Dancing in the street
TTITLE7=Four tops - Reach out I will be there
TTITLE8=Diana Ross - You can't hurry love
TTITLE9=The temptations - Papa was a rolling Stone
TTITLE10=Jackson 5 - I'll be there
TTITLE11=Thelma Houston - Don't leave me this way
TTITLE12=Diana Ross - Upside down
TTITLE13=Rick James - Superfreak
TTITLE14=The Commodores - Nightshift
TTITLE15=Dennis Edwards - Don't look any further
TTITLE16=Shanile - I love your smile
TTITLE17=Rockwell - Somebody's watching me
TTITLE18=The commodores - 3 times a lady
TTITLE19=Lionel Ritchie - Hello
EXTD=
EXTT0=
EXTT1=
EXTT2=
EXTT3=
EXTT4=
EXTT5=
EXTT6=
EXTT7=
EXTT8=
EXTT9=
EXTT10=
EXTT11=
EXTT12=
EXTT13=
EXTT14=
EXTT15=
EXTT16=
EXTT17=
EXTT18=
EXTT19=
PLAYORDER=
